<?xml version="1.0" encoding="UTF-8" standalone="no"?>
<!-- Created with Inkscape (http://www.inkscape.org/) -->

<svg
   viewBox="0 0 150.00001 100"
   version="1.1"
   id="svg5"
   sodipodi:docname="XBox Adaptive.svg"
   inkscape:version="1.1.1 (c3084ef, 2021-09-22)"
   xmlns:inkscape="http://www.inkscape.org/namespaces/inkscape"
   xmlns:sodipodi="http://sodipodi.sourceforge.net/DTD/sodipodi-0.dtd"
   xmlns="http://www.w3.org/2000/svg"
   xmlns:svg="http://www.w3.org/2000/svg"
   style="fill:#000000;stroke:#000000;stroke-width:0.5" >
    <clipPath
       clipPathUnits="userSpaceOnUse"
       id="clipPath38735">
      <path
         id="path38737"
         style="fill:#ff0000;fill-opacity:1;fill-rule:nonzero;stroke:none;stroke-width:7.5"
         d="m 242.6804,232.72752 2540.4819,7.58126 -3.8322,1284.16422 -752.6627,-2.246 c -0.1073,-1.974 -0.1517,-3.9496 -0.3776,-5.9192 11.3276,-1.76 20.735,-5.6392 21.2815,-13.794 13.565,-12.6959 7.5299,-25.2349 -2.7794,-35.6334 7.7452,-12.0117 -2.7114,-13.702 -17.0677,-13.9817 -3.4075,-2.4506 -6.5354,-4.6746 -8.6821,-6.398 -13.7617,-11.0476 -17.9922,-9.7889 -17.425,-2.2785 -3.6397,-0.1451 -7.2748,-0.3165 -10.9114,-0.5598 -5.355,-2.4837 -12.4724,-2.0075 -19.4332,-1.8012 -5.3455,-0.6242 -10.68,-1.353 -15.9896,-2.201 -5.0207,-2.2787 -10.5329,-5.3997 -11.5535,-1.3968 -0.683,2.6776 -1.2111,5.3683 -1.6355,8.0811 -23.1961,-2.3857 -46.3863,-4.8563 -69.5882,-7.1803 -7.753,-0.9515 -15.5134,-1.8559 -23.2681,-2.7941 -26.2884,-14.614 -43.534,-20.3472 -39.3611,-4.7171 -66.8573,-7.9744 -133.7309,-15.8273 -200.4641,-24.7682 -149.6289,-20.0474 -467.254,-68.7165 -601.3677,-92.381 -50.86172,-8.9746 -100.9983,-21.6478 -151.545,-32.2541 -57.23247,-12.0093 -114.44503,-24.1557 -171.79399,-35.5958 -12.53775,-2.5011 -25.23227,-4.1479 -37.84782,-6.2214 -38.03221,-6.2507 -59.20711,11.2338 -59.97487,30.7586 -0.67744,17.2278 14.52637,36.0395 48.08422,41.5549 12.61553,2.0734 25.31053,3.7177 37.84781,6.2213 56.35008,11.2521 112.55738,23.2322 168.7927,35.0449 50.42112,10.5913 100.44176,23.21 151.17909,32.1651 137.43886,24.2579 453.17456,72.7357 606.09656,93.2301 88.1059,11.8077 176.4583,21.6704 264.6893,32.5038 -34.483,-43.3274 -50.466,-68.1588 -53.6962,-80.2582 13.1205,1.565 26.2434,3.13 39.3611,4.7171 23.7464,13.2009 54.724,33.5033 84.3366,52.2392 -1.9008,7.1009 -3.2977,14.2788 -3.5655,21.6399 -0.219,6.0234 11.8239,2.3255 17.7585,3.3782 8.4303,1.4955 17.9353,7.3397 26.2982,8.4427 l -920.1671,-2.7459 c 3.8142,-1.7547 7.6153,-3.5555 11.427,-5.3126 65.8884,-30.3697 35.121,-96.9996 -30.7243,-66.5374 -2.9928,1.3845 -5.9752,2.7989 -8.9774,4.1628 -4.1177,1.8705 -6.6411,2.8148 -8.36,3.476 -2.748,-1.1484 -5.5598,-1.9425 -8.52,-1.8272 -12.38114,0.4821 -24.54083,5.194 -35.5113,10.9537 -5.35058,2.8092 -8.4381,8.7603 -11.71614,13.8371 -16.17741,25.0536 -19.91669,19.9958 -5.54663,27.7131 -4.60909,5.3602 -7.9617,9.7648 -11.01114,13.2094 l -65.03881,-0.1941 c -95.82666,-25.4842 -119.3924,-51.0323 -214.22903,-114.6779 -43.75114,-29.3616 -88.32407,-57.6557 -130.29499,-89.5103 -9.4276,-7.1552 -15.41377,-17.954 -23.12285,-26.9344 -34.70394,-40.4267 -73.92168,-25.4195 -73.5863,7.2072 0.12131,11.8012 5.41749,25.9051 17.96996,40.5275 59.83695,69.7042 21.32033,29.2514 167.09196,128.8048 26.02128,17.771 51.41219,36.7287 77.75409,54.0507 l -462.6542,-1.3807 z M 2001.6169,1444.2222 c 2.2125,0.088 4.4227,0.2172 6.635,0.2688 1.9113,0.043 7.2881,-1.3667 5.7283,-0.2612 -2.9521,2.0918 -7.1963,3.4692 -11.6011,4.7408 -0.4064,-1.7797 -0.6574,-3.3619 -0.7622,-4.7483 z m 0.7622,4.7484 c 0.2147,0.9415 0.4369,1.8962 0.7233,2.9318 -0.8732,-0.7876 -1.7241,-1.585 -2.5563,-2.3953 0.6208,-0.1752 1.2147,-0.3579 1.8327,-0.5368 z m 0.7233,2.9318 c 0.1466,0.1317 0.291,0.2656 0.4383,0.3966 -0.1125,-0.01 -0.2249,-0.023 -0.3366,-0.031 -0.03,-0.1148 -0.067,-0.2529 -0.1017,-0.3663 z m 0.4383,0.3966 c 0.01,8e-4 0.023,-8e-4 0.03,0 7.8057,0.6848 16.4935,0.4505 24.1537,0.5994 5.4648,3.9302 11.7616,8.6296 17.0677,13.9816 -1.9546,3.0313 -5.3193,6.8661 -9.8045,11.3527 -9.1771,-9.3611 -21.4534,-17.0219 -31.4461,-25.9338 z m 31.4462,25.9337 c 5.7025,5.8168 10.2255,12.286 12.1859,20.1634 0.3684,1.4801 0.4828,2.8497 0.398,4.1174 -4.1634,3.8967 -10.1145,7.8003 -18.4187,11.6639 -1.1788,-1.3496 -2.4351,-2.657 -3.7236,-3.9516 -1.1165,-6.3211 -2.8567,-12.5837 -5.0417,-18.7212 5.9373,-5.0513 10.7905,-9.4609 14.6001,-13.2719 z m -1015.3388,-22.0434 c 0.189,-9e-4 0.2085,0 0.4102,0 4.1331,1.9142 16.8165,6.8683 12.4048,5.7353 -4.4454,-1.1414 -8.596,-3.6922 -12.8149,-5.7365 z m 3.48,61.0214 c 0.7474,-1.1283 1.53,-2.2471 2.3391,-3.3328 0.2824,-0.3779 0.7785,1.0953 0.3912,1.3634 -0.9132,0.6333 -1.8245,1.3048 -2.7305,1.9694 z m 955.4195,4.8727 c 2.0714,-0.2661 4.0723,-0.8269 5.8805,-2.1798 0.2165,-0.1613 0.3729,-0.2914 0.5871,-0.452 1.975,1.0624 3.5523,1.7094 5.4266,2.6676 z" />
    </clipPath>
  </defs>
  <g
     inkscape:label="Layer 1"
     inkscape:groupmode="layer"
     id="layer1">
    <path
       d="m 73.086563,15.771905 c -0.30864,-0.155472 -0.721081,-0.05367 -0.876554,0.254971 -0.517473,0.771214 0.150707,1.28838 0.822424,0.620662 0.361693,-0.359542 0.362616,-0.668642 0.05413,-0.875633 z"
       id="path37858" />
    <path
       d="m 72.938331,30.917527 c -0.257584,-7.68e-4 -0.515935,0.256047 -0.516858,0.565147 -7.68e-4,0.257584 0.256507,0.361386 0.514552,0.207604 0.309563,-0.153627 0.516397,-0.410596 0.516859,-0.565147 3.08e-4,-0.103026 -0.205452,-0.206681 -0.514553,-0.207604 z"
       id="path37860" />
    <path
       d="m 72.967403,38.439129 c -0.360003,-0.207143 -0.771983,-0.25989 -0.926995,-0.105801 -0.465034,0.462267 0.203146,0.979434 0.925149,0.724001 0.5673,-0.204375 0.567608,-0.307408 0.0019,-0.6182 z"
       id="path37862" />
    <path
       d="m 72.955873,42.302885 c -0.307564,-0.516088 -0.51363,-0.516703 -0.824115,-0.05397 -0.414132,0.668488 -0.0552,1.236249 0.718314,0.980971 0.309561,-0.153627 0.362155,-0.514091 0.105801,-0.926995 z"
       id="path37864" />
    <path
       d="m 72.94588,45.651476 c -0.256969,-0.206836 -0.617894,-0.10488 -0.773213,0.152245 -0.206836,0.256969 -0.10488,0.617892 0.152245,0.773212 0.256969,0.206835 0.617894,0.104881 0.773212,-0.152244 0.206836,-0.256969 0.104881,-0.617894 -0.152244,-0.773213 z"
       id="path37866" />
    <path
       d="m 72.935118,49.257649 c -0.256968,-0.206836 -0.617893,-0.10488 -0.773212,0.152245 -0.206836,0.256969 -0.104881,0.617894 0.152243,0.773212 0.256969,0.206836 0.617894,0.104881 0.773214,-0.152244 0.206835,-0.256969 0.104881,-0.617894 -0.152245,-0.773213 z"
       id="path37868" />
    <path
       d="m 72.975873,52.863977 c -0.308639,-0.155474 -0.72108,-0.05367 -0.876554,0.25497 -0.517473,0.771214 0.150707,1.288381 0.822424,0.620661 0.361693,-0.359541 0.362616,-0.668642 0.05414,-0.875631 z"
       id="path37870" />
    <path
       d="m 72.91298,56.676063 c -0.257584,-7.68e-4 -0.670486,0.255586 -0.825805,0.512708 -0.155473,0.30864 -0.104574,0.514861 0.204529,0.515784 0.257584,7.68e-4 0.670334,-0.204069 0.825806,-0.512708 0.155319,-0.257124 0.104574,-0.514861 -0.20453,-0.515784 z"
       id="path37872" />
    <path
       d="m 72.593118,60.281314 c -0.412134,-0.0012 -0.773519,0.255278 -0.774289,0.512862 -9.21e-4,0.309101 0.359081,0.516244 0.771215,0.517475 0.412134,0.0012 0.773366,-0.203762 0.774289,-0.512862 7.68e-4,-0.257585 -0.359081,-0.516245 -0.771215,-0.517475 z"
       id="path37874" />
    <path
       id="path37856"
       style="fill:#000000;stroke:none;stroke-width:0.0515169"
       d="m 36.644652,11.717011 c -0.06831,0.450784 -0.143973,0.770827 -0.228657,0.85501 -0.723384,0.719084 -0.97415,84.690935 -0.255068,85.414322 0.308178,0.310025 1.801539,0.57209 3.295526,0.576549 l 2.781617,0.0083 -0.05434,0.108662 h 7.03705 l 5.381361,-0.123003 -0.06187,0.123003 h 1.340247 c 0.583546,-0.11944 1.44337,-0.144922 2.894809,-0.162252 1.78958,-0.02399 2.675633,0.0045 3.074422,0.162252 h 3.681149 c 0.156062,-0.01139 0.293284,-0.0294 0.456558,-0.03773 l 3.143088,-0.144894 0.0023,0.182625 h 0.765965 l 0.0038,-0.07773 1.597581,0.0053 c 3.039489,0.0091 3.297735,-0.35113 3.309111,-4.163369 0.0067,-2.206516 0.13381,-3.092093 0.415807,-2.855574 v -0.998391 c -0.24521,-0.437421 -0.396713,-2.353745 -0.38864,-5.058376 0.0074,-2.496423 0.173038,-4.590341 0.38864,-5.053095 v -0.849725 c -0.222946,-0.411503 -0.368338,-0.985533 -0.366756,-1.515326 0.0019,-0.639505 0.15644,-1.078966 0.366756,-1.255727 v -0.78181 c -0.237818,-0.254279 -0.358701,-0.778826 -0.356189,-1.620221 0.0032,-1.057129 0.141608,-1.619424 0.356189,-1.719078 v -0.77728 c -0.439295,-0.786127 -0.478504,-2.615744 0,-2.879721 V 67.93041 c -0.435574,-1.726644 -0.480556,-5.827631 0,-6.51031 v -0.883687 c -0.397392,-0.675578 -0.428739,-2.416965 0,-2.758221 v -1.805864 c -0.283047,-1.94561 -0.323019,-5.583149 0,-6.34504 v -0.823316 l -0.2279,-0.05508 0.0091,-2.885003 c 0.02744,-1.235191 0.06569,-1.963168 0.218845,-2.442779 v -1.328173 c -0.22751,-0.193783 -0.257092,-0.656493 -0.254313,-1.587014 0.0019,-0.654867 0.09885,-1.192535 0.254313,-1.51759 v -1.055746 c -0.333525,-0.494467 -0.315663,-1.781065 0,-2.522016 v -0.984057 c -0.334178,-0.348066 -0.291954,-1.510644 0,-2.362787 v -1.369682 c -0.126523,-0.310129 -0.22236,-0.901859 -0.220355,-1.57343 0.0019,-0.619969 0.08214,-1.094521 0.220355,-1.402882 v -1.037636 c -0.293879,-0.340804 -0.262632,-1.322006 0,-2.02546 v -2.545428 c -0.125837,-0.866907 -0.193189,-2.196776 -0.187921,-3.96188 0.0096,-3.245555 -0.190546,-5.254765 -0.601451,-5.668129 -0.410906,-0.413364 -3.140599,-0.628308 -8.807443,-0.64522 l -8.139584,-0.02415 0.06942,-0.09282 h -0.568241 l -0.06792,0.09131 -3.297037,-0.0098 c -0.92212,-0.0028 -1.754949,-0.03277 -2.356752,-0.0815 h -2.527303 c -0.385423,0.05873 -0.869125,0.06468 -1.555319,0.06263 -0.702903,-0.002 -1.189506,-0.01344 -1.55532,-0.06263 h -1.48061 l -0.0038,0.05358 -3.348351,-0.01051 -3.349108,-0.0098 v -0.03321 z m 6.984978,0.515421 0.09736,1.700215 0.04679,1.700211 0.210545,-1.648143 c 0.210989,-1.647921 0.314143,-1.698675 2.580882,-1.691911 1.648537,0.005 2.266118,0.212371 2.058669,0.675406 -0.778439,1.903817 -0.831396,2.471007 -0.05434,1.030844 l 0.880669,-1.646633 11.746027,-0.01585 c 6.439594,0.01922 12.054833,0.190446 12.518026,0.346382 0.771828,0.311405 0.812084,4.071982 0.593905,42.657732 l -0.280731,42.294748 -9.222497,0.127529 c -8.603607,0.07735 -9.169564,0.02342 -8.858006,-0.79992 0.311715,-0.874863 0.259542,-0.874543 -0.412789,-7.58e-4 -0.568836,0.719547 -1.547543,0.871127 -6.441635,0.856523 l -5.770006,-0.01735 1.397601,-2.313736 c 0.725075,-1.285769 1.243501,-2.314788 1.08895,-2.315248 -0.15455,-4.6e-4 -0.879093,1.02737 -1.655689,2.312983 l -1.346282,2.365804 -3.193653,-0.163753 -3.193649,-0.164513 -0.08603,-22.976632 -0.03471,-22.925315 1.393074,-0.562206 1.444386,-0.614282 -1.443633,0.304877 -1.391562,0.253558 0.159983,-19.215487 0.212057,-19.266802 3.503808,-0.144134 z" />
    <path
       d="m 72.788116,63.991137 c -0.309407,0.102106 -0.516397,0.410596 -0.517166,0.66818 -7.68e-4,0.257584 0.204377,0.567299 0.513169,0.671256 0.308793,0.10396 0.5673,-0.204376 0.568683,-0.668027 0.0014,-0.463652 -0.255278,-0.773521 -0.564686,-0.671409 z"
       id="path37876" />
    <path
       d="m 72.520078,67.493508 c -0.875784,-0.0026 -0.724616,1.131217 0.201763,1.443084 0.36031,0.104107 0.618662,-0.152704 0.620046,-0.616356 0.0014,-0.463651 -0.358157,-0.825345 -0.821809,-0.826728 z"
       id="path37878" />
    <path
       d="m 72.560834,71.099835 c -0.412134,-0.0012 -0.773828,0.358312 -0.775058,0.770446 -0.0012,0.412135 0.203762,0.773366 0.461346,0.774134 0.257583,7.7e-4 0.567759,-0.358925 0.775057,-0.770445 0.155933,-0.46319 0.0023,-0.772751 -0.461345,-0.774135 z"
       id="path37880" />
    <path
       d="m 72.537773,78.82735 c -0.412134,-0.0012 -0.773519,0.255277 -0.774289,0.512861 -9.21e-4,0.309101 0.359081,0.516245 0.771215,0.517475 0.412134,0.0012 0.773366,-0.203762 0.774289,-0.512862 7.68e-4,-0.257583 -0.359081,-0.516243 -0.771215,-0.517474 z"
       id="path37882" />
    <path
       d="m 72.836113,82.434445 c -0.309101,-9.21e-4 -0.670488,0.255586 -0.825806,0.512709 -0.155472,0.308639 0.04997,0.515322 0.462113,0.516551 0.463652,0.0014 0.824884,-0.203607 0.825807,-0.512708 7.68e-4,-0.257584 -0.204531,-0.515782 -0.462114,-0.516552 z"
       id="path37884" />
    <path
       d="m 72.813668,89.955894 c -0.256969,-0.206836 -0.617894,-0.104881 -0.773213,0.152244 -0.206836,0.256969 -0.10488,0.617894 0.152243,0.773213 0.256969,0.206836 0.617894,0.10488 0.773213,-0.152245 0.206836,-0.256969 0.10488,-0.617894 -0.152243,-0.773212 z"
       id="path37888" />
    <path
       d="m 72.611843,19.47973 c -0.10396,0.308793 -0.1058,0.926993 -0.0038,1.287918 0.153627,0.309563 0.25743,0.05228 0.259583,-0.668949 0.0022,-0.721234 -0.100106,-0.979126 -0.25574,-0.618969 z"
       id="path37890" />
    <path
       d="m 72.382409,27.309663 c -0.257585,-7.7e-4 -0.361386,0.256507 -0.207606,0.514553 0.15363,0.309561 0.410598,0.516397 0.565147,0.516858 0.103041,3.08e-4 0.206683,-0.205452 0.207606,-0.514553 7.68e-4,-0.257583 -0.256047,-0.515936 -0.565147,-0.516858 z"
       id="path37892" />
    <path
       d="m 72.290952,75.220408 c -0.257585,-7.69e-4 -0.515937,0.256046 -0.516705,0.51363 -9.23e-4,0.309101 0.256046,0.515937 0.513629,0.516705 0.309101,9.23e-4 0.515783,-0.20453 0.516705,-0.51363 7.69e-4,-0.257585 -0.20453,-0.515783 -0.513629,-0.516705 z"
       id="path37894" />
    <path
       d="m 72.234837,94.024027 c -0.258045,0.153781 -0.516397,0.410597 -0.516858,0.565147 -3.08e-4,0.103026 0.256969,0.206836 0.514553,0.207604 0.309101,9.23e-4 0.515937,-0.256046 0.516858,-0.565147 7.7e-4,-0.257583 -0.20499,-0.361231 -0.514553,-0.207604 z"
       id="path37896" />
    <path
       d="m 69.364135,20.191279 c -1.335286,-1.39495 -1.592869,-1.395718 -2.987666,-0.111949 -1.394948,1.335286 -1.396333,1.798936 -0.112255,3.090698 1.078623,1.085081 2.367003,0.934374 3.453007,-0.453351 0.879013,-1.079238 0.827957,-1.233941 -0.353085,-2.525397 z m -0.367536,2.317178 c -0.153936,-0.206528 -0.617894,-0.10488 -1.031104,0.25451 -1.290994,1.026491 -1.185192,0.09949 0.106414,-1.133063 l 1.291453,-1.181042 -0.0035,1.184886 c -0.002,0.669718 -0.157625,1.029874 -0.363231,0.874709 z M 67.198893,20.69999 c -0.359541,-0.361695 -0.41029,-0.619432 -0.101186,-0.618509 0.721235,0.0022 1.337592,0.622198 0.975898,0.98174 -0.154858,0.102573 -0.566531,-0.05321 -0.874709,-0.363231 z"
       id="path37898" />
    <path
       d="m 69.809967,43.426877 c -0.609438,-2.9383 -1.736657,-5.002353 -4.099356,-7.379196 -3.90359,-3.926958 -8.690653,-5.280691 -14.00103,-3.905574 -6.95999,1.730816 -11.252332,7.23035 -11.273701,14.39118 0.02753,8.036769 5.470477,14.02901 13.402369,14.619369 4.532553,0.32263 7.936042,-0.800592 11.19036,-3.727362 3.925728,-3.491457 5.796782,-8.998216 4.781358,-13.998417 z m -2.655488,9.419728 c -4.146861,8.539484 -17.235348,9.582287 -22.878825,1.734827 -1.79586,-2.426667 -2.35578,-4.695097 -1.119378,-4.691407 0.360617,0.0011 1.598249,-0.407368 2.73331,-0.97067 1.083389,-0.51194 3.352739,-1.38096 5.002814,-1.891208 1.598557,-0.510402 2.939683,-1.07309 2.940298,-1.279156 0.0012,-0.412134 -0.617585,-0.207912 -8.198852,2.551394 -2.372384,0.868713 -4.435054,1.532281 -4.537626,1.377424 -0.102719,-0.103347 1.496446,-0.81981 3.559422,-1.586413 6.446976,-2.453587 8.407073,-3.272014 7.788871,-3.273858 -0.360464,-0.05259 -2.887244,0.764142 -5.620553,1.734812 -2.733311,0.97067 -5.054025,1.788021 -5.157058,1.787713 -0.566685,-0.0018 0.377835,-5.768801 1.258847,-7.517757 2.642882,-5.195353 6.101117,-7.400273 11.923279,-7.640485 5.152292,-0.190693 8.341566,1.415858 11.83087,6.06282 2.30903,3.097924 2.547859,9.383738 0.474581,13.601964 z"
       id="path37900" />
    <path
       d="M 69.657908,77.118688 C 68.894687,73.922342 67.305355,71.341737 64.839161,69.119139 57.74845,62.864394 46.976065,64.63535 42.05722,72.914945 c -1.656837,2.776985 -2.240894,8.596688 -1.220091,11.793802 1.684833,5.105234 5.897833,8.93008 11.252193,10.079437 3.603869,0.783514 8.191935,-0.233139 11.59896,-2.541247 4.646039,-3.180203 7.293228,-9.818025 5.969626,-15.128249 z M 64.90822,80.50465 c -0.310331,0.411213 -0.361695,0.359542 -0.205607,-0.155165 0.104574,-0.514859 0.929608,-0.769984 2.475265,-0.816888 2.266892,-0.04476 2.266892,-0.04476 0.205606,0.155164 -1.133831,0.151168 -2.268275,0.508404 -2.475264,0.816889 z m 2.507102,5.777411 c -0.519472,1.440933 -1.193341,2.829887 -1.451694,3.086702 -0.258505,0.308332 0.05444,-0.978665 0.729537,-2.779753 0.675253,-1.852606 1.55565,-3.395495 1.968091,-3.497299 0.464111,-0.153166 0.566838,-0.04983 0.205452,0.206683 -0.258199,0.205298 -0.932067,1.594252 -1.451386,2.983667 z m -0.750459,-7.472237 c -1.700054,-0.0051 -2.164474,0.251128 -2.78621,1.434169 -0.362924,0.771674 -1.39864,2.571686 -2.175543,3.960333 -0.828572,1.44001 -2.330398,4.062906 -3.366269,5.914435 -1.657607,3.03457 -1.96763,3.342748 -3.616473,3.440863 -1.906428,0.09734 -4.892402,-0.58129 -6.126498,-1.357731 -0.719851,-0.465804 -0.253279,-1.443239 4.252508,-9.414962 1.55365,-2.725777 1.814156,-3.703826 0.573141,-2.162013 -0.672178,0.822269 -0.775211,0.821963 -0.515475,0.101493 0.572065,-1.801395 -0.512554,-0.877322 -2.117568,1.796784 -2.796049,4.731241 -3.780248,6.531406 -3.782247,7.201123 -0.0011,0.360619 1.240553,-1.387262 2.690556,-3.907278 1.449849,-2.4685 2.743455,-4.370779 2.846182,-4.267437 0.256816,0.258353 -5.387875,10.081297 -5.800009,10.080068 -0.103041,-3.08e-4 -0.10196,-0.360925 0.05383,-0.772598 0.207451,-0.463037 0.0023,-0.772751 -0.409827,-0.773982 -1.90612,-0.0057 -4.569772,-5.113841 -4.815057,-9.235951 -0.343246,-5.822471 3.692588,-11.683391 9.055097,-13.264422 4.279581,-1.223642 7.369972,-1.008351 10.713488,0.701695 3.652002,1.917035 6.832821,6.357009 7.285095,10.170633 0.05091,0.206221 -0.87686,0.358004 -1.958712,0.354775 z m 1.535664,3.301685 c -0.258046,0.153781 -1.035716,1.800012 -1.814002,3.652309 -1.50521,3.756267 -2.539695,5.144144 -4.552078,6.22 -2.11557,1.127067 -2.733156,0.919155 -1.749879,-0.571911 0.465803,-0.719851 0.725078,-1.285767 0.570527,-1.286227 -0.206066,-6.16e-4 1.193342,-2.829887 4.041676,-7.818557 0.725232,-1.337284 1.448311,-1.953333 2.169546,-1.951181 1.59702,0.0048 2.418059,1.089078 1.33421,1.755567 z m -7.126533,5.748663 c -1.916574,3.497452 -3.573412,6.274437 -3.675984,6.11958 -0.205453,-0.206683 6.58183,-13.117251 6.942449,-13.116175 0.46365,0.0014 0.0486,0.978973 -3.266465,6.996595 z"
       id="path37902" />
    <path
       d="m 63.141061,16.669537 c -0.7706,-0.723541 -1.233944,-0.827958 -1.904891,-0.417823 -1.135522,0.717853 -1.397256,2.108036 -0.627272,3.037645 0.821348,0.981278 1.800166,0.984199 2.782059,-0.04321 1.084926,-1.027107 1.034487,-1.387877 -0.249896,-2.576606 z m -0.21314,2.369156 c -1.032949,0.87271 -2.319023,0.250666 -2.31518,-1.037254 0.0018,-0.566684 0.364154,-1.183809 0.776748,-1.33713 0.773674,-0.306793 2.316564,0.573603 2.314258,1.346355 -6.15e-4,0.206066 -0.362616,0.668642 -0.775826,1.028029 z"
       id="path37906" />
    <path
       d="m 62.212836,16.97587 c -0.566684,-0.0018 -1.241169,1.59333 -0.830264,2.006694 0.154089,0.155012 0.515322,-0.04999 0.774135,-0.461344 0.621123,-0.976975 0.622814,-1.543659 0.05613,-1.54535 z"
       id="path37908" />
    <path
       d="m 63.63409,24.089489 c -1.024955,-1.806163 -3.862066,-0.578216 -3.455928,1.432169 0.304335,1.597941 1.745421,2.065897 2.933381,1.039098 1.239785,-1.129679 1.240092,-1.232714 0.522547,-2.471267 z m -0.726769,1.85245 c -0.981739,0.975899 -2.319792,0.50825 -2.315948,-0.77967 0.0038,-1.287918 1.344817,-1.799089 2.321175,-0.9719 0.924995,0.775519 0.924995,0.775519 -0.0053,1.75157 z"
       id="path37910" />
    <path
       d="m 61.882213,24.187294 c -0.412134,-0.0012 -0.773829,0.358313 -0.775058,0.770447 -0.0012,0.412134 0.358311,0.773827 0.770445,0.775057 0.412134,0.0012 0.773829,-0.358311 0.775058,-0.770446 0.0012,-0.412134 -0.358312,-0.773827 -0.770445,-0.775058 z"
       id="path37912" />
    <path
       d="m 57.452078,24.071041 c -1.024954,-1.806163 -3.862067,-0.578216 -3.455927,1.432169 0.304334,1.597941 1.74542,2.065897 2.93338,1.039098 1.239784,-1.129679 1.240092,-1.232714 0.522547,-2.471267 z m -1.551191,1.901507 c -0.875786,-0.0026 -1.23548,-0.31279 -1.233327,-1.034025 0.0035,-1.184885 1.756643,-1.694826 2.371769,-0.662646 0.666643,1.032334 0.252511,1.700822 -1.138442,1.696671 z"
       id="path37914" />
    <path
       d="m 51.540103,19.880503 c -0.205453,-0.206683 -1.02926,-0.363693 -1.853528,-0.366152 -1.236403,-0.0037 -1.441854,-0.210373 -1.437857,-1.549808 0.0035,-1.184886 -0.252818,-1.597788 -1.230868,-1.858294 -1.750341,-0.41736 -2.370079,0.09596 -2.375305,1.847533 -0.0038,1.287919 -0.210527,1.493371 -1.653457,1.643616 -1.545963,0.149939 -1.700975,0.304028 -1.705895,1.952565 -0.005,1.648535 0.14917,1.803547 1.694211,1.962709 1.442009,0.158856 1.64746,0.365537 1.643617,1.653457 -0.0029,0.978819 0.304336,1.597942 0.973437,1.806008 1.544121,0.468263 2.628124,-0.249743 2.632737,-1.795247 0.0038,-1.287918 0.210525,-1.493371 1.704973,-1.643463 1.44293,-0.150246 1.649613,-0.355697 1.80816,-1.694673 0.10564,-0.875478 0.0053,-1.75157 -0.200225,-1.958251 z m -4.905315,3.746119 c -0.257584,-7.69e-4 -0.463037,-0.207451 -0.462114,-0.516552 7.68e-4,-0.257584 0.310637,-0.514245 0.722771,-0.513015 0.412134,0.0012 0.876862,-0.358004 1.032796,-0.821194 0.15578,-0.411673 0.517013,-0.616663 0.825652,-0.461191 0.257123,0.15532 0.515013,0.05305 0.515783,-0.204529 9.23e-4,-0.309101 0.310792,-0.565763 0.671408,-0.564687 0.309101,9.23e-4 -0.156703,0.720774 -1.137981,1.542122 -0.929915,0.873016 -1.962249,1.53966 -2.168315,1.539046 z m -1.797706,-1.808468 c -0.926842,-0.157317 -1.802934,-0.05689 -2.009923,0.251588 -0.465958,0.771368 -1.289765,0.614358 -1.287151,-0.261427 0.0012,-0.412134 0.724003,-0.925149 1.70359,-1.179812 1.392028,-0.356467 1.702052,-0.664645 1.80939,-2.106807 0.158547,-1.338974 0.365536,-1.647461 1.292377,-1.490143 1.441854,0.210372 1.950565,2.375613 0.967134,3.918195 -0.672792,1.028337 -1.085387,1.181658 -2.475417,0.868406 z m 1.07278,3.042718 c -0.411518,-0.207298 -0.771521,-0.41444 -0.771213,-0.517474 3.07e-4,-0.10304 0.361232,-0.204991 0.773366,-0.203762 0.412134,0.0012 0.772137,0.208374 0.771215,0.517475 -7.69e-4,0.257584 -0.361694,0.359541 -0.773368,0.203761 z"
       id="path37920" />

</g></svg>